name Walk10.mot
datacolumns 19
datarows 10
range 1.12500000 1.17000000
endheader

                time	   L_ground_force_vx	   L_ground_force_vy	   L_ground_force_vz	   L_ground_force_px	   L_ground_force_py	   L_ground_force_pz	   R_ground_force_vx	   R_ground_force_vy	   R_ground_force_vz	   R_ground_force_px	   R_ground_force_py	   R_ground_force_pz	   L_ground_torque_x	   L_ground_torque_y	   L_ground_torque_z	   R_ground_torque_x	   R_ground_torque_y	   R_ground_torque_z	
          1.12500000	         -3.43178614	         63.35665153	         -7.04737527	         -0.08752456	          0.00000000	         -0.00959979	         -0.00000000	          0.00000000	         -0.00000000	          0.00000000	          0.00000000	          0.00000000	          0.00000000	          0.18439470	          0.00000000	          0.00000000	         -0.00000000	          0.00000000	
          1.13000000	         -7.03864304	         91.38189614	         -9.91273694	         -0.11327287	          0.00000000	         -0.01239899	         -0.00000000	          0.00000000	         -0.00000000	          0.00000000	          0.00000000	          0.00000000	          0.00000000	          0.28817550	          0.00000000	          0.00000000	         -0.00000000	          0.00000000	
          1.13500000	        -11.79516283	        123.81564713	        -13.15875765	         -0.13948561	          0.00000000	         -0.01523890	         -0.00000000	          0.00000000	         -0.00000000	          0.00000000	          0.00000000	          0.00000000	          0.00000000	          0.41447460	          0.00000000	          0.00000000	         -0.00000000	          0.00000000	
          1.14000000	        -17.76283292	        159.22432399	        -16.61229000	         -0.16395889	          0.00000000	         -0.01788939	         -0.00000000	          0.00000000	          0.00000000	         -0.00000000	          0.00000000	         -0.00000000	          0.00000000	          0.56056942	          0.00000000	          0.00000000	         -0.00000000	          0.00000000	
          1.14500000	        -24.90745616	        195.72183734	        -20.04392047	         -0.18522122	          0.00000000	         -0.02022069	         -0.00000000	          0.00000000	          0.00000000	         -0.00000000	          0.00000000	         -0.00000000	          0.00000000	          0.72138738	          0.00000000	          0.00000000	         -0.00000000	          0.00000000	
          1.15000000	        -33.05766884	        231.80975560	        -23.21480272	         -0.20258278	          0.00000000	         -0.02218811	         -0.00000000	         -0.00000000	          0.00000000	         -0.00000000	          0.00000000	         -0.00000000	          0.00000000	          0.89084476	          0.00000000	          0.00000000	          0.00000000	          0.00000000	
          1.15500000	        -41.89842515	        266.61696452	        -25.91692958	         -0.21591090	          0.00000000	         -0.02379741	          0.00000000	         -0.00000001	          0.00000000	         -0.00000000	          0.00000000	         -0.00000000	          0.00000000	          1.06234914	          0.00000000	          0.00000000	          0.00000000	          0.00000000	
          1.16000000	        -51.01659729	        299.64294206	        -27.99153231	         -0.22543939	          0.00000000	         -0.02508459	          0.00000000	         -0.00000001	          0.00000000	         -0.00000000	          0.00000000	         -0.00000000	          0.00000000	          1.22869520	          0.00000000	          0.00000000	          0.00000000	          0.00000000	
          1.16500000	        -59.96251777	        330.63727241	        -29.33002771	         -0.23161709	          0.00000000	         -0.02610271	          0.00000000	         -0.00000002	          0.00000000	         -0.00000000	          0.00000000	         -0.00000000	          0.00000000	          1.38257257	          0.00000000	          0.00000000	          0.00000000	          0.00000000	
          1.17000000	        -68.33235729	        359.53567843	        -29.86598593	         -0.23498931	          0.00000000	         -0.02691293	          0.00000001	         -0.00000003	          0.00000000	         -0.00000000	          0.00000000	         -0.00000000	          0.00000000	          1.51727552	          0.00000000	          0.00000000	          0.00000000	          0.00000000	
